<svg width="60" height="29" viewBox="0 0 60 29" fill="none" xmlns="http://www.w3.org/2000/svg">
<path d="M12.3669 8.68258C12.9442 8.49015 13.5599 8.38752 14.1988 8.38752C16.9955 8.38752 19.3304 10.3734 19.864 13.0136L23.8281 12.2054C22.9199 7.72042 18.9532 4.34387 14.1988 4.34387C13.1084 4.34387 12.0641 4.52091 11.084 4.84933L12.3669 8.68258Z" fill="#7C7C8A"/>
<path d="M7.68948 21.5268L10.3707 18.4966C9.17506 17.437 8.42072 15.8898 8.42072 14.1656C8.42072 12.444 9.17506 10.8968 10.3707 9.83974L7.68948 6.80701C5.65739 8.60817 4.37451 11.2381 4.37451 14.1656C4.37451 17.0957 5.65739 19.7256 7.68948 21.5268" fill="#323238"/>
<path d="M19.864 15.3253C19.3278 17.9629 16.9955 19.9463 14.2014 19.9463C13.5599 19.9463 12.9416 19.8436 12.3669 19.6486L11.084 23.487C12.0641 23.8129 13.1109 23.9899 14.2014 23.9899C18.9506 23.9899 22.9147 20.6185 23.8281 16.1387L19.864 15.3253Z" fill="#121214"/>
<path d="M27.2945 18.6223C27.1636 18.412 26.9892 18.0758 26.8814 17.827C26.2528 16.3696 26.2246 14.8609 26.7531 13.4138C27.3356 11.8256 28.4491 10.612 29.8885 9.99111C31.6974 9.21369 33.6961 9.36507 35.4305 10.3939C36.5313 11.0251 37.3112 12.0001 37.9039 13.3805C37.9783 13.5575 38.0451 13.7448 38.1118 13.9065L27.2945 18.6223ZM30.9071 12.3337C29.6217 12.8853 28.9597 14.0912 29.0982 15.5024L34.5377 13.1598C33.6012 12.0617 32.385 11.6973 30.9071 12.3337V12.3337ZM35.215 17.4293C35.2124 17.4293 35.2124 17.4318 35.2124 17.4318L35.0996 17.3549C34.7737 17.8808 34.2682 18.3093 33.6294 18.5864C32.4132 19.115 31.2868 18.979 30.476 18.2683L30.4016 18.3812C30.4016 18.3812 30.4016 18.3786 30.3991 18.3786L29.0187 20.444C29.3625 20.6827 29.7294 20.8828 30.1143 21.0444C31.6383 21.6782 33.1983 21.6474 34.7352 20.9803C35.8462 20.4979 36.7186 19.7641 37.3138 18.8327L35.215 17.4293ZM41.8911 6.95325V18.4325L43.6769 19.156L42.6634 21.5217L40.6929 20.7006C40.2516 20.5082 39.9489 20.2157 39.7231 19.8847C39.505 19.5486 39.3433 19.0842 39.3433 18.4633V6.95325H41.8911ZM46.5146 15.5101C46.5146 14.5325 46.9483 13.655 47.6307 13.0598L45.7988 11.0174C44.557 12.1156 43.7744 13.7192 43.7744 15.5049C43.7718 17.2933 44.5544 18.8994 45.7937 19.9976L47.6231 17.9552C46.9431 17.3574 46.5146 16.4851 46.5146 15.5101V15.5101ZM49.768 18.766C49.4088 18.766 49.0599 18.7044 48.7366 18.5967L47.8617 21.1958C48.4595 21.3959 49.0984 21.5063 49.7655 21.5063C52.6648 21.5088 55.0843 19.4511 55.6462 16.7185L52.9573 16.1695C52.6519 17.6551 51.3408 18.7686 49.768 18.766V18.766ZM49.7757 9.51388C49.1112 9.51388 48.4723 9.62164 47.8745 9.81921L48.7417 12.4209C49.0676 12.3131 49.414 12.2541 49.7732 12.2541C51.3485 12.2567 52.6622 13.3754 52.9598 14.8635L55.6488 14.3196C55.0971 11.5819 52.6776 9.51645 49.7757 9.51388V9.51388Z" fill="white"/>
</svg>
