<svg width="55" height="24" viewBox="0 0 55 24" fill="none" xmlns="http://www.w3.org/2000/svg">
<g clip-path="url(#clip0_2705_234)">
<path d="M15.1012 0H9.40217C6.88393 0.119063 4.82554 1.13331 4.2312 3.22484C3.92129 4.31561 3.75074 5.51358 3.50841 6.64429C2.27644 12.3936 1.18404 18.3014 0.00561523 23.936H44.3748C47.805 23.936 50.1603 23.2112 50.7966 20.4886C51.0923 19.2239 51.3756 17.7916 51.6585 16.4021C52.7612 10.9846 53.865 5.56744 54.9946 0H15.1012Z" fill="#9E9E9E"/>
<path d="M14.6562 8.50693C14.8945 8.34274 15.2015 7.59501 14.8508 7.2837C14.7398 7.18515 14.554 7.15655 14.2948 7.20037C14.0544 7.24096 13.9161 7.32267 13.8222 7.45059C13.6713 7.65622 13.5328 8.27657 13.7666 8.50704C13.9944 8.73134 14.5045 8.61131 14.6562 8.50693V8.50693ZM11.2646 7.2837C11.0938 8.39175 10.9015 9.47821 10.7086 10.5641C9.47013 10.5772 8.20567 10.6252 7.01116 10.5363C7.23676 9.47389 7.39857 8.3476 7.62277 7.2837H6.28836C5.81071 9.99375 5.37613 12.7471 4.84277 15.4014H6.20503C6.41865 14.0399 6.61856 12.6644 6.89998 11.3704C8.06146 11.3418 9.45351 11.2919 10.5697 11.3982C10.3395 12.7435 10.0614 14.0406 9.84686 15.4014H11.2091C11.6469 12.6513 12.108 9.92478 12.6548 7.2837H11.2646V7.2837ZM30.5302 9.61897C29.4703 9.19086 28.6369 9.91431 28.2506 10.592C28.3383 10.2905 28.3743 9.93741 28.4453 9.61897H27.3889C27.1306 11.6219 26.75 13.5023 26.3881 15.4014H27.5836C27.7511 14.2742 27.8235 12.7545 28.1951 11.6762C28.4922 10.8145 29.2696 10.0803 30.3914 10.4808C30.4069 10.1629 30.4979 9.92024 30.5302 9.61897V9.61897ZM31.1973 14.0393C31.0871 13.7545 31.0587 13.2845 31.0862 12.9271C31.1479 12.1239 31.4407 11.1459 31.8924 10.7032C32.5158 10.0921 33.7465 10.1932 34.7281 10.5364C34.7585 10.2055 34.825 9.91042 34.8672 9.59123C33.2573 9.32828 31.7296 9.49192 30.9196 10.3419C30.1266 11.1739 29.6069 13.0862 29.9743 14.2895C30.4043 15.6975 32.3328 15.7741 33.8942 15.2348C33.9632 14.9517 33.9998 14.6362 34.0609 14.3452C33.2076 14.7883 31.5765 15.0187 31.1973 14.0393V14.0393ZM44.6249 9.64671C43.5683 9.11843 42.6887 10.0049 42.3453 10.5363C42.4431 10.2636 42.4487 9.89844 42.5398 9.61886H41.4835C41.1986 11.6044 40.8554 13.5314 40.455 15.4013H41.6782C41.6859 14.6349 41.8365 14.068 41.9561 13.3165C42.2117 11.7116 42.5871 9.95165 44.4583 10.4807C44.5202 10.2093 44.546 9.90146 44.6249 9.64671ZM13.433 9.61897C13.4006 9.62361 13.4028 9.6629 13.4051 9.7023C13.1417 11.6722 12.7852 13.5491 12.4044 15.4013H13.5998C13.887 13.4182 14.216 11.477 14.6284 9.61886L13.433 9.61897V9.61897ZM23.9415 9.50779C23.0777 9.57439 22.3476 9.82288 21.8287 10.3696C21.1922 11.0401 20.6769 12.5225 20.8279 13.8725C21.0434 15.7985 23.4414 15.7293 25.3593 15.2625C25.392 14.9244 25.4738 14.6355 25.5261 14.3172C24.736 14.6129 23.3642 15.0256 22.5514 14.512C21.9378 14.1239 21.9342 13.1417 22.1344 12.2879C23.4234 12.2469 24.7632 12.2546 26.0542 12.2879C26.136 11.6828 26.3703 11.023 26.1653 10.4253C25.895 9.63624 24.9268 9.43179 23.9415 9.50779ZM25.0812 11.6206H22.2733C22.3622 10.9751 22.943 10.2656 23.858 10.2306C24.7192 10.1977 25.3358 10.5468 25.0812 11.6206V11.6206ZM19.4101 9.61897C18.3983 9.2389 17.1653 9.69259 16.6306 10.1241C16.6326 10.1431 16.6179 10.1457 16.6021 10.1471C16.6112 10.1395 16.6211 10.1318 16.6306 10.1241C16.6305 10.1226 16.6303 10.121 16.6301 10.1194C16.639 9.93384 16.7043 9.80453 16.7134 9.61897H15.6848C15.2562 12.4708 14.7478 15.2428 14.2115 17.9868H15.4069C15.5799 16.9182 15.6941 15.7907 15.9351 14.7898C16.2081 15.8425 17.9907 15.6414 18.743 15.2347C20.2949 14.3953 21.492 10.4009 19.4101 9.61897V9.61897ZM18.4649 14.3172C17.8253 14.9946 16.253 14.9844 16.1296 13.8446C16.076 13.3487 16.2607 12.8287 16.3522 12.3156C16.4445 11.7963 16.5111 11.298 16.6022 10.8422C17.2322 10.073 19.0833 9.98004 19.2711 11.2592C19.434 12.3697 18.9945 13.7563 18.4649 14.3172V14.3172ZM49.0728 7.11693C48.9704 8.01524 48.8334 8.87912 48.656 9.7023C45.7237 8.77409 43.9254 10.9316 43.9578 13.5945C43.9642 14.1095 44.0528 14.6201 44.3747 14.9844C44.9299 15.612 46.5191 15.7624 47.3217 15.2346C47.4769 15.1324 47.6357 14.9466 47.7385 14.8177C47.8159 14.7206 47.9387 14.4664 47.961 14.5396C47.9187 14.8217 47.8557 15.0831 47.8499 15.4013H48.9341C49.1432 12.4039 49.7892 9.84382 50.2685 7.11682H49.073V7.11693H49.0728ZM46.4041 14.762C45.5994 14.7792 45.1993 14.2812 45.1808 13.4554C45.1487 12.0092 45.7831 10.4024 47.0713 10.2583C47.6711 10.1913 48.1053 10.3308 48.5448 10.4808C48.1413 12.1054 48.2869 14.7216 46.4041 14.762V14.762ZM36.0902 9.61897C36.0313 9.94928 35.941 10.2482 35.8678 10.5641C36.5732 10.3872 38.7698 9.8449 38.9815 10.7865C39.0517 11.0993 38.9305 11.4317 38.8424 11.6762C36.8562 11.488 35.2373 11.818 34.8114 13.2329C34.5262 14.1807 34.8433 15.1133 35.4508 15.3737C36.6208 15.875 38.044 15.3007 38.5366 14.512C38.4855 14.785 38.437 15.061 38.4534 15.4014H39.4819C39.4929 14.4163 39.6362 13.619 39.7877 12.7325C39.9168 11.9777 40.1598 11.2304 40.1213 10.5641C40.0328 9.03834 37.5051 9.57806 36.0902 9.61897V9.61897ZM38.0362 14.2894C37.4201 14.8925 35.6909 15.0638 35.8678 13.6222C36.0146 12.4249 37.3184 12.1704 38.731 12.3433C38.6261 12.9983 38.5056 13.8299 38.0362 14.2894V14.2894Z" fill="white"/>
</g>
<defs>
<clipPath id="clip0_2705_234">
<rect width="55" height="23.936" fill="white"/>
</clipPath>
</defs>
</svg>
